<svg xmlns="http://www.w3.org/2000/svg" xmlns:xlink="http://www.w3.org/1999/xlink" width="50" zoomAndPan="magnify" viewBox="0 0 187.5 187.499992" height="50" preserveAspectRatio="xMidYMid meet" version="1.0"><defs><clipPath id="a7559ebf04"><path d="M 9.609375 0 L 177.609375 0 L 177.609375 187 L 9.609375 187 Z M 9.609375 0 " clip-rule="nonzero"/></clipPath></defs><g clip-path="url(#a7559ebf04)"><path fill="#000000" d="M 177.585938 68.417969 L 177.585938 84.515625 C 177.585938 91.914062 171.605469 97.929688 164.253906 97.929688 C 156.902344 97.929688 150.921875 91.914062 150.921875 84.515625 L 150.921875 72.785156 C 150.914062 72.652344 150.847656 72.542969 150.847656 72.410156 C 150.847656 39.878906 125.128906 13.414062 93.515625 13.414062 C 62.632812 13.414062 37.445312 38.6875 36.296875 70.1875 L 36.296875 87.199219 C 36.296875 96.078125 43.472656 103.296875 52.296875 103.296875 C 55.242188 103.296875 57.628906 105.703125 57.628906 108.664062 C 57.628906 111.628906 55.242188 114.03125 52.296875 114.03125 C 41.0625 114.03125 31.472656 106.980469 27.554688 97.0625 C 26.117188 97.597656 24.582031 97.929688 22.964844 97.929688 C 15.613281 97.933594 9.632812 91.914062 9.632812 84.515625 L 9.632812 68.417969 C 9.632812 61.019531 15.613281 55.003906 22.964844 55.003906 C 23.644531 55.003906 24.300781 55.105469 24.953125 55.207031 C 32.519531 23.574219 60.347656 0 93.515625 0 C 126.691406 0 154.527344 23.578125 162.082031 55.222656 C 162.792969 55.105469 163.511719 55.003906 164.253906 55.003906 C 171.605469 55.003906 177.585938 61.023438 177.585938 68.417969 Z M 137.480469 72.410156 C 137.480469 47.980469 117.796875 28.171875 93.515625 28.171875 C 69.238281 28.171875 49.554688 47.980469 49.554688 72.410156 C 49.554688 96.839844 69.238281 116.644531 93.515625 116.644531 C 117.796875 116.648438 137.480469 96.839844 137.480469 72.410156 Z M 137.28125 130.0625 L 121.628906 130.0625 C 118.144531 130.0625 114.878906 131.773438 112.886719 134.648438 L 101.941406 150.410156 C 97.664062 156.574219 88.574219 156.511719 84.375 150.289062 L 73.898438 134.765625 C 71.914062 131.824219 68.609375 130.0625 65.078125 130.0625 L 49.707031 130.0625 C 29.910156 130.0625 13.863281 146.207031 13.863281 166.128906 L 13.863281 182.132812 C 13.863281 185.097656 16.25 187.5 19.195312 187.5 L 167.792969 187.5 C 170.738281 187.5 173.125 185.097656 173.125 182.132812 L 173.125 166.128906 C 173.125 146.207031 157.078125 130.0625 137.28125 130.0625 Z M 137.28125 130.0625 " fill-opacity="1" fill-rule="nonzero"/></g></svg>