<svg xmlns="http://www.w3.org/2000/svg" xmlns:xlink="http://www.w3.org/1999/xlink" width="50" zoomAndPan="magnify" viewBox="0 0 187.5 187.499992" height="50" preserveAspectRatio="xMidYMid meet" version="1.0"><defs><clipPath id="c9e185e4b8"><path d="M 27 0 L 161 0 L 161 187 L 27 187 Z M 27 0 " clip-rule="nonzero"/></clipPath></defs><path fill="#000000" d="M 94.03125 21.898438 C 92.648438 21.898438 91.269531 21.964844 89.890625 22.101562 C 88.515625 22.238281 87.148438 22.441406 85.789062 22.710938 C 84.433594 22.980469 83.089844 23.316406 81.765625 23.71875 C 80.441406 24.121094 79.140625 24.585938 77.863281 25.117188 C 76.585938 25.644531 75.335938 26.234375 74.113281 26.886719 C 72.894531 27.542969 71.707031 28.25 70.558594 29.019531 C 69.40625 29.789062 68.296875 30.613281 67.226562 31.492188 C 66.15625 32.371094 65.132812 33.296875 64.152344 34.277344 C 63.175781 35.253906 62.246094 36.28125 61.371094 37.347656 C 60.492188 38.417969 59.667969 39.53125 58.898438 40.679688 C 58.128906 41.832031 57.421875 43.015625 56.769531 44.238281 C 56.117188 45.457031 55.523438 46.707031 54.996094 47.988281 C 54.464844 49.265625 54 50.566406 53.597656 51.890625 C 53.195312 53.214844 52.859375 54.558594 52.589844 55.914062 C 52.320312 57.273438 52.117188 58.640625 51.980469 60.015625 C 51.847656 61.394531 51.777344 62.777344 51.777344 64.160156 C 51.777344 65.542969 51.847656 66.925781 51.980469 68.300781 C 52.117188 69.679688 52.320312 71.046875 52.589844 72.402344 C 52.859375 73.761719 53.195312 75.101562 53.597656 76.425781 C 54 77.75 54.464844 79.054688 54.996094 80.332031 C 55.523438 81.609375 56.117188 82.859375 56.769531 84.082031 C 57.421875 85.300781 58.128906 86.488281 58.898438 87.636719 C 59.667969 88.789062 60.492188 89.898438 61.371094 90.96875 C 62.246094 92.039062 63.175781 93.0625 64.152344 94.042969 C 65.132812 95.019531 66.15625 95.949219 67.226562 96.828125 C 68.296875 97.707031 69.40625 98.53125 70.558594 99.296875 C 71.707031 100.066406 72.894531 100.777344 74.113281 101.429688 C 75.335938 102.082031 76.585938 102.675781 77.863281 103.203125 C 79.140625 103.734375 80.441406 104.199219 81.765625 104.601562 C 83.089844 105.003906 84.433594 105.339844 85.789062 105.609375 C 87.148438 105.878906 88.515625 106.082031 89.890625 106.21875 C 91.269531 106.351562 92.648438 106.421875 94.03125 106.421875 C 95.417969 106.421875 96.796875 106.351562 98.175781 106.21875 C 99.550781 106.082031 100.917969 105.878906 102.277344 105.609375 C 103.632812 105.339844 104.972656 105.003906 106.296875 104.601562 C 107.621094 104.199219 108.925781 103.734375 110.203125 103.203125 C 111.480469 102.675781 112.730469 102.082031 113.953125 101.429688 C 115.171875 100.777344 116.355469 100.066406 117.507812 99.296875 C 118.660156 98.53125 119.769531 97.707031 120.839844 96.828125 C 121.910156 95.949219 122.933594 95.019531 123.910156 94.042969 C 124.890625 93.0625 125.816406 92.039062 126.695312 90.96875 C 127.574219 89.898438 128.398438 88.789062 129.167969 87.636719 C 129.933594 86.488281 130.644531 85.300781 131.296875 84.082031 C 131.949219 82.859375 132.542969 81.609375 133.070312 80.332031 C 133.601562 79.054688 134.066406 77.75 134.46875 76.425781 C 134.871094 75.101562 135.207031 73.761719 135.476562 72.402344 C 135.746094 71.046875 135.949219 69.679688 136.082031 68.300781 C 136.21875 66.925781 136.289062 65.542969 136.289062 64.160156 C 136.289062 62.777344 136.21875 61.394531 136.082031 60.015625 C 135.949219 58.640625 135.746094 57.273438 135.476562 55.914062 C 135.207031 54.558594 134.871094 53.214844 134.46875 51.890625 C 134.066406 50.566406 133.601562 49.265625 133.070312 47.988281 C 132.542969 46.707031 131.949219 45.457031 131.296875 44.238281 C 130.644531 43.015625 129.933594 41.832031 129.167969 40.679688 C 128.398438 39.53125 127.574219 38.417969 126.695312 37.347656 C 125.816406 36.28125 124.890625 35.253906 123.910156 34.277344 C 122.933594 33.296875 121.910156 32.371094 120.839844 31.492188 C 119.769531 30.613281 118.660156 29.789062 117.507812 29.019531 C 116.355469 28.25 115.171875 27.542969 113.953125 26.886719 C 112.730469 26.234375 111.480469 25.644531 110.203125 25.117188 C 108.925781 24.585938 107.621094 24.121094 106.296875 23.71875 C 104.972656 23.316406 103.632812 22.980469 102.277344 22.710938 C 100.917969 22.441406 99.550781 22.238281 98.175781 22.101562 C 96.796875 21.964844 95.417969 21.898438 94.03125 21.898438 Z M 120.035156 51.578125 L 88.34375 85.484375 C 87.738281 86.164062 86.980469 86.5 86.070312 86.492188 C 85.246094 86.484375 84.53125 86.199219 83.925781 85.648438 L 68.03125 70.726562 C 67.75 70.425781 67.535156 70.085938 67.386719 69.703125 C 67.238281 69.320312 67.164062 68.925781 67.164062 68.515625 C 67.164062 68.105469 67.238281 67.710938 67.386719 67.328125 C 67.535156 66.945312 67.75 66.605469 68.03125 66.304688 C 68.320312 66.011719 68.65625 65.78125 69.035156 65.613281 C 69.414062 65.445312 69.808594 65.355469 70.222656 65.339844 C 70.636719 65.324219 71.039062 65.386719 71.429688 65.527344 C 71.820312 65.664062 72.171875 65.871094 72.484375 66.144531 L 86.132812 78.917969 L 115.84375 47.289062 C 115.957031 47.066406 116.097656 46.859375 116.261719 46.667969 C 116.425781 46.476562 116.609375 46.308594 116.8125 46.160156 C 117.015625 46.011719 117.234375 45.890625 117.464844 45.792969 C 117.695312 45.695312 117.9375 45.625 118.183594 45.582031 C 118.433594 45.539062 118.679688 45.527344 118.933594 45.542969 C 119.183594 45.558594 119.429688 45.605469 119.667969 45.675781 C 119.910156 45.75 120.136719 45.847656 120.355469 45.976562 C 120.574219 46.101562 120.773438 46.25 120.957031 46.421875 C 121.136719 46.59375 121.300781 46.785156 121.4375 46.996094 C 121.578125 47.207031 121.6875 47.429688 121.777344 47.664062 C 121.863281 47.898438 121.921875 48.140625 121.953125 48.390625 C 121.984375 48.640625 121.984375 48.890625 121.957031 49.140625 C 121.929688 49.390625 121.875 49.632812 121.789062 49.871094 C 121.707031 50.109375 121.597656 50.332031 121.460938 50.542969 C 121.324219 50.753906 121.167969 50.949219 120.988281 51.125 C 120.808594 51.296875 120.609375 51.449219 120.394531 51.578125 Z M 120.035156 51.578125 " fill-opacity="1" fill-rule="nonzero"/><g clip-path="url(#c9e185e4b8)"><path fill="#000000" d="M 35.234375 79.242188 C 36.074219 80.257812 36.695312 81.390625 37.105469 82.644531 C 37.515625 83.894531 37.683594 85.179688 37.605469 86.492188 L 37.28125 92.246094 C 37.226562 93.207031 37.253906 94.164062 37.363281 95.121094 C 37.472656 96.078125 37.664062 97.019531 37.933594 97.941406 C 38.207031 98.863281 38.554688 99.757812 38.976562 100.621094 C 39.402344 101.484375 39.898438 102.304688 40.464844 103.082031 C 41.03125 103.859375 41.660156 104.585938 42.351562 105.253906 C 43.042969 105.925781 43.785156 106.53125 44.578125 107.074219 C 45.375 107.613281 46.210938 108.085938 47.085938 108.484375 C 47.960938 108.878906 48.863281 109.203125 49.796875 109.445312 L 55.320312 110.90625 C 56.597656 111.242188 57.773438 111.796875 58.84375 112.570312 C 59.914062 113.34375 60.808594 114.285156 61.527344 115.394531 L 61.527344 115.621094 L 38.417969 170.167969 C 38.324219 170.4375 38.265625 170.710938 38.242188 170.992188 C 38.21875 171.277344 38.234375 171.558594 38.285156 171.835938 C 38.335938 172.113281 38.421875 172.382812 38.542969 172.636719 C 38.660156 172.894531 38.8125 173.132812 38.996094 173.347656 C 39.175781 173.566406 39.382812 173.753906 39.617188 173.917969 C 39.847656 174.082031 40.097656 174.210938 40.363281 174.308594 C 40.628906 174.40625 40.902344 174.46875 41.183594 174.492188 C 41.46875 174.519531 41.746094 174.507812 42.027344 174.460938 L 60.878906 170.039062 L 75.796875 187.757812 C 76.4375 188.484375 77.238281 188.851562 78.203125 188.863281 C 78.464844 188.894531 78.722656 188.894531 78.984375 188.863281 C 79.558594 188.695312 80.050781 188.394531 80.457031 187.957031 C 80.867188 187.519531 81.132812 187.007812 81.257812 186.425781 L 93.449219 124.105469 C 94.152344 124.039062 94.855469 124.039062 95.558594 124.105469 L 107.714844 186.328125 C 107.84375 186.910156 108.109375 187.421875 108.519531 187.859375 C 108.925781 188.296875 109.417969 188.597656 109.992188 188.765625 C 110.261719 188.796875 110.535156 188.796875 110.804688 188.765625 C 111.769531 188.753906 112.574219 188.386719 113.210938 187.660156 L 128.097656 169.941406 L 146.949219 174.363281 C 147.523438 174.460938 148.082031 174.40625 148.625 174.199219 C 149.171875 173.996094 149.625 173.667969 149.996094 173.21875 C 150.363281 172.769531 150.597656 172.257812 150.691406 171.683594 C 150.785156 171.109375 150.730469 170.550781 150.523438 170.007812 L 126.308594 115.78125 L 126.535156 115.394531 C 127.25 114.273438 128.144531 113.320312 129.214844 112.535156 C 130.285156 111.75 131.460938 111.1875 132.746094 110.84375 L 138.269531 109.378906 C 139.199219 109.136719 140.101562 108.8125 140.976562 108.414062 C 141.851562 108.015625 142.6875 107.542969 143.480469 107 C 144.277344 106.460938 145.019531 105.851562 145.707031 105.183594 C 146.398438 104.511719 147.027344 103.789062 147.59375 103.011719 C 148.160156 102.234375 148.652344 101.414062 149.078125 100.550781 C 149.503906 99.6875 149.851562 98.796875 150.125 97.871094 C 150.398438 96.949219 150.585938 96.011719 150.699219 95.054688 C 150.808594 94.101562 150.835938 93.140625 150.785156 92.183594 L 150.457031 86.429688 C 150.386719 85.113281 150.554688 83.832031 150.964844 82.582031 C 151.375 81.328125 151.996094 80.195312 152.832031 79.179688 L 156.472656 74.726562 C 157.078125 73.976562 157.617188 73.183594 158.089844 72.347656 C 158.5625 71.507812 158.957031 70.632812 159.28125 69.726562 C 159.601562 68.820312 159.847656 67.894531 160.007812 66.945312 C 160.171875 65.996094 160.253906 65.039062 160.253906 64.078125 C 160.253906 63.117188 160.171875 62.160156 160.007812 61.210938 C 159.847656 60.261719 159.601562 59.335938 159.28125 58.429688 C 158.957031 57.523438 158.5625 56.648438 158.089844 55.808594 C 157.617188 54.972656 157.078125 54.179688 156.472656 53.433594 L 152.832031 49.074219 C 151.996094 48.058594 151.375 46.925781 150.964844 45.675781 C 150.554688 44.421875 150.386719 43.140625 150.457031 41.828125 L 150.785156 36.070312 C 150.839844 35.109375 150.8125 34.152344 150.703125 33.195312 C 150.59375 32.238281 150.402344 31.296875 150.132812 30.371094 C 149.863281 29.449219 149.515625 28.554688 149.089844 27.6875 C 148.664062 26.824219 148.167969 26 147.601562 25.222656 C 147.039062 24.441406 146.410156 23.71875 145.71875 23.046875 C 145.027344 22.375 144.285156 21.765625 143.488281 21.222656 C 142.695312 20.679688 141.859375 20.207031 140.980469 19.808594 C 140.105469 19.410156 139.203125 19.085938 138.269531 18.84375 L 132.746094 17.414062 C 131.460938 17.074219 130.28125 16.511719 129.210938 15.722656 C 128.136719 14.9375 127.246094 13.984375 126.535156 12.859375 L 123.285156 8.050781 C 122.761719 7.242188 122.171875 6.488281 121.519531 5.78125 C 120.867188 5.078125 120.15625 4.433594 119.394531 3.847656 C 118.628906 3.265625 117.820312 2.75 116.96875 2.304688 C 116.117188 1.859375 115.234375 1.492188 114.316406 1.195312 C 113.402344 0.902344 112.46875 0.6875 111.515625 0.554688 C 110.5625 0.421875 109.609375 0.367188 108.644531 0.398438 C 107.683594 0.429688 106.734375 0.539062 105.792969 0.734375 C 104.851562 0.925781 103.929688 1.199219 103.035156 1.546875 L 97.867188 3.5625 C 96.632812 4.035156 95.355469 4.269531 94.03125 4.269531 C 92.710938 4.269531 91.433594 4.035156 90.199219 3.5625 L 84.867188 1.449219 C 83.972656 1.101562 83.054688 0.828125 82.109375 0.636719 C 81.167969 0.441406 80.21875 0.332031 79.257812 0.300781 C 78.296875 0.269531 77.339844 0.324219 76.386719 0.457031 C 75.433594 0.589844 74.5 0.804688 73.585938 1.097656 C 72.671875 1.394531 71.785156 1.761719 70.933594 2.207031 C 70.082031 2.652344 69.273438 3.167969 68.511719 3.75 C 67.746094 4.335938 67.039062 4.980469 66.382812 5.683594 C 65.730469 6.390625 65.140625 7.144531 64.617188 7.953125 L 61.527344 12.859375 C 60.816406 13.976562 59.921875 14.925781 58.851562 15.707031 C 57.78125 16.488281 56.601562 17.042969 55.320312 17.378906 L 49.796875 18.808594 C 48.863281 19.054688 47.957031 19.378906 47.082031 19.78125 C 46.207031 20.183594 45.367188 20.65625 44.574219 21.199219 C 43.777344 21.746094 43.035156 22.355469 42.34375 23.027344 C 41.652344 23.699219 41.023438 24.425781 40.460938 25.207031 C 39.894531 25.988281 39.398438 26.8125 38.972656 27.679688 C 38.546875 28.542969 38.199219 29.441406 37.929688 30.363281 C 37.660156 31.289062 37.46875 32.234375 37.359375 33.191406 C 37.253906 34.148438 37.226562 35.109375 37.28125 36.070312 L 37.605469 41.828125 C 37.679688 43.140625 37.511719 44.421875 37.101562 45.675781 C 36.691406 46.925781 36.070312 48.058594 35.234375 49.074219 L 31.59375 53.527344 C 30.988281 54.277344 30.445312 55.070312 29.976562 55.90625 C 29.503906 56.746094 29.105469 57.621094 28.785156 58.527344 C 28.460938 59.433594 28.21875 60.359375 28.054688 61.308594 C 27.894531 62.257812 27.8125 63.214844 27.8125 64.175781 C 27.8125 65.136719 27.894531 66.09375 28.054688 67.042969 C 28.21875 67.992188 28.460938 68.917969 28.785156 69.824219 C 29.105469 70.730469 29.503906 71.605469 29.976562 72.445312 C 30.445312 73.28125 30.988281 74.074219 31.59375 74.824219 Z M 94.03125 112.664062 C 92.445312 112.664062 90.859375 112.585938 89.277344 112.429688 C 87.695312 112.273438 86.125 112.039062 84.566406 111.730469 C 83.007812 111.417969 81.46875 111.035156 79.945312 110.574219 C 78.425781 110.109375 76.929688 109.574219 75.460938 108.96875 C 73.992188 108.359375 72.558594 107.679688 71.15625 106.929688 C 69.753906 106.183594 68.394531 105.367188 67.070312 104.484375 C 65.75 103.597656 64.476562 102.652344 63.246094 101.644531 C 62.019531 100.636719 60.84375 99.570312 59.71875 98.445312 C 58.59375 97.324219 57.527344 96.144531 56.519531 94.917969 C 55.511719 93.6875 54.566406 92.414062 53.683594 91.089844 C 52.800781 89.769531 51.984375 88.410156 51.234375 87.007812 C 50.484375 85.605469 49.808594 84.167969 49.199219 82.699219 C 48.589844 81.230469 48.054688 79.738281 47.59375 78.214844 C 47.132812 76.695312 46.746094 75.15625 46.4375 73.597656 C 46.128906 72.035156 45.894531 70.464844 45.738281 68.882812 C 45.582031 67.300781 45.503906 65.714844 45.503906 64.128906 C 45.503906 62.539062 45.582031 60.953125 45.738281 59.371094 C 45.894531 57.789062 46.128906 56.21875 46.4375 54.660156 C 46.746094 53.097656 47.132812 51.558594 47.59375 50.039062 C 48.054688 48.515625 48.589844 47.023438 49.199219 45.554688 C 49.808594 44.085938 50.484375 42.648438 51.234375 41.246094 C 51.984375 39.847656 52.800781 38.484375 53.683594 37.164062 C 54.566406 35.839844 55.511719 34.566406 56.519531 33.335938 C 57.527344 32.109375 58.59375 30.929688 59.71875 29.808594 C 60.84375 28.683594 62.019531 27.617188 63.246094 26.609375 C 64.476562 25.601562 65.75 24.65625 67.070312 23.773438 C 68.394531 22.886719 69.753906 22.070312 71.15625 21.324219 C 72.558594 20.574219 73.992188 19.894531 75.460938 19.285156 C 76.929688 18.679688 78.425781 18.144531 79.945312 17.683594 C 81.46875 17.21875 83.007812 16.835938 84.566406 16.523438 C 86.125 16.214844 87.695312 15.980469 89.277344 15.824219 C 90.859375 15.667969 92.445312 15.59375 94.03125 15.59375 C 95.621094 15.59375 97.207031 15.667969 98.789062 15.824219 C 100.371094 15.980469 101.941406 16.214844 103.5 16.523438 C 105.058594 16.835938 106.597656 17.21875 108.121094 17.683594 C 109.640625 18.144531 111.136719 18.679688 112.601562 19.285156 C 114.070312 19.894531 115.507812 20.574219 116.910156 21.324219 C 118.308594 22.070312 119.671875 22.886719 120.992188 23.773438 C 122.316406 24.65625 123.589844 25.601562 124.816406 26.609375 C 126.046875 27.617188 127.222656 28.683594 128.347656 29.808594 C 129.472656 30.929688 130.535156 32.109375 131.546875 33.335938 C 132.554688 34.566406 133.5 35.839844 134.382812 37.164062 C 135.265625 38.484375 136.082031 39.847656 136.832031 41.246094 C 137.578125 42.648438 138.257812 44.085938 138.867188 45.554688 C 139.476562 47.023438 140.007812 48.515625 140.472656 50.039062 C 140.933594 51.558594 141.316406 53.097656 141.628906 54.660156 C 141.9375 56.21875 142.171875 57.789062 142.328125 59.371094 C 142.484375 60.953125 142.558594 62.539062 142.558594 64.128906 C 142.554688 65.714844 142.46875 67.296875 142.304688 68.878906 C 142.144531 70.457031 141.90625 72.023438 141.589844 73.582031 C 141.277344 75.136719 140.886719 76.671875 140.421875 78.191406 C 139.953125 79.707031 139.417969 81.199219 138.804688 82.664062 C 138.195312 84.132812 137.515625 85.5625 136.765625 86.960938 C 136.011719 88.359375 135.195312 89.71875 134.3125 91.039062 C 133.429688 92.355469 132.484375 93.628906 131.476562 94.855469 C 130.46875 96.082031 129.402344 97.257812 128.28125 98.378906 C 127.160156 99.503906 125.984375 100.566406 124.757812 101.578125 C 123.53125 102.585938 122.257812 103.53125 120.941406 104.414062 C 119.621094 105.296875 118.261719 106.113281 116.863281 106.863281 C 115.464844 107.617188 114.035156 108.296875 112.566406 108.90625 C 111.101562 109.519531 109.613281 110.054688 108.09375 110.523438 C 106.578125 110.988281 105.039062 111.378906 103.484375 111.691406 C 101.929688 112.007812 100.359375 112.246094 98.78125 112.40625 C 97.203125 112.570312 95.621094 112.65625 94.03125 112.664062 Z M 94.03125 112.664062 " fill-opacity="1" fill-rule="nonzero"/></g></svg>