<svg xmlns="http://www.w3.org/2000/svg" xmlns:xlink="http://www.w3.org/1999/xlink" width="50" zoomAndPan="magnify" viewBox="0 0 187.5 187.499992" height="50" preserveAspectRatio="xMidYMid meet" version="1.0"><defs><clipPath id="835c2aa0e3"><path d="M 0 0 L 186.75 0 L 186.75 183.75 L 0 183.75 Z M 0 0 " clip-rule="nonzero"/></clipPath></defs><g clip-path="url(#835c2aa0e3)"><path fill="#000000" d="M 3.734375 107.34375 L 27.515625 107.34375 C 29.574219 107.34375 31.246094 109.015625 31.246094 111.078125 L 31.246094 180.019531 C 31.246094 182.078125 29.574219 183.75 27.515625 183.75 L 3.734375 183.75 C 1.671875 183.75 0 182.078125 0 180.019531 L 0 111.078125 C 0 109.015625 1.671875 107.34375 3.734375 107.34375 Z M 75.113281 53.058594 C 79.8125 53.390625 83.144531 59.808594 83.699219 65.042969 C 83.785156 66.199219 83.882812 67.351562 83.972656 68.503906 L 83.921875 70.527344 C 84.117188 73.191406 83.539062 79.777344 83.441406 84.667969 C 83.355469 89.554688 82.679688 96.121094 83.359375 99.863281 L 83.589844 101.253906 L 121.363281 101.253906 C 121.363281 101.265625 121.363281 101.277344 121.363281 101.289062 L 121.847656 101.253906 C 130.773438 101.253906 138.015625 106.480469 138.015625 112.921875 C 138.015625 116.949219 135.1875 120.503906 130.890625 122.597656 L 128.570312 123.507812 L 129.066406 123.621094 C 134.222656 125.246094 137.839844 129.050781 137.839844 133.488281 C 137.839844 137.921875 134.222656 141.726562 129.066406 143.351562 L 127.527344 143.707031 L 128.332031 144.015625 C 132.15625 145.828125 134.667969 148.902344 134.667969 152.386719 C 134.667969 156.570312 131.046875 160.160156 125.890625 161.691406 L 124.128906 162.074219 L 124.742188 162.308594 C 128.5625 164.121094 131.074219 167.195312 131.074219 170.679688 C 131.074219 176.257812 124.640625 180.777344 116.703125 180.777344 L 115.039062 180.660156 C 115.039062 180.699219 115.039062 180.738281 115.039062 180.777344 L 54.988281 180.777344 C 45.984375 180.777344 38.6875 173.484375 38.6875 164.488281 L 38.6875 117.542969 C 38.6875 116.417969 38.742188 115.980469 38.960938 114.917969 L 39.371094 113.125 L 39.574219 112.011719 C 41.453125 103.660156 46.996094 95.683594 50.234375 90.722656 L 56.164062 78.929688 C 58.261719 73.871094 59.605469 70.691406 60 69.035156 C 59.980469 68.839844 64 60.035156 63.980469 59.832031 C 66.441406 55.542969 70.066406 53.507812 74.152344 53.078125 C 74.476562 53.042969 74.796875 53.039062 75.113281 53.058594 Z M 140.929688 15.5 L 140.929688 21.859375 C 137.109375 22.222656 134.050781 23.5 131.761719 25.699219 C 129.472656 27.902344 128.320312 30.699219 128.320312 34.09375 C 128.320312 36.121094 128.644531 37.851562 129.289062 39.277344 C 129.929688 40.703125 130.859375 41.957031 132.058594 43.042969 C 133.269531 44.128906 134.703125 45.082031 136.378906 45.90625 C 138.042969 46.730469 139.863281 47.542969 141.832031 48.347656 C 143.804688 49.148438 145.183594 50.003906 145.964844 50.90625 C 146.746094 51.8125 147.140625 53.058594 147.140625 54.644531 C 147.140625 56.070312 146.746094 57.191406 145.964844 58.003906 C 145.183594 58.816406 144.109375 59.226562 142.742188 59.226562 C 140.867188 59.226562 139.429688 58.628906 138.410156 57.433594 C 137.394531 56.238281 136.886719 54.492188 136.886719 52.203125 L 126.726562 52.203125 C 126.726562 56.363281 127.894531 59.710938 130.234375 62.253906 C 132.582031 64.792969 135.945312 66.296875 140.324219 66.757812 L 140.324219 72.84375 L 145.121094 72.84375 L 145.121094 66.789062 C 148.882812 66.425781 151.851562 65.160156 154.035156 62.992188 C 156.214844 60.820312 157.308594 58.019531 157.308594 54.582031 C 157.308594 52.554688 156.964844 50.816406 156.277344 49.371094 C 155.597656 47.925781 154.652344 46.660156 153.441406 45.574219 C 152.242188 44.488281 150.804688 43.519531 149.152344 42.667969 C 147.492188 41.8125 145.722656 40.988281 143.855469 40.195312 C 141.984375 39.402344 140.628906 38.570312 139.785156 37.695312 C 138.9375 36.820312 138.519531 35.640625 138.519531 34.152344 C 138.519531 32.6875 138.882812 31.539062 139.621094 30.703125 C 140.351562 29.871094 141.382812 29.453125 142.710938 29.453125 C 144.199219 29.453125 145.34375 30.015625 146.148438 31.140625 C 146.949219 32.265625 147.351562 33.871094 147.351562 35.960938 L 157.550781 35.960938 C 157.550781 32.144531 156.496094 28.996094 154.398438 26.515625 C 152.292969 24.035156 149.40625 22.523438 145.722656 21.980469 L 145.722656 15.5 Z M 142.238281 0 C 166.820312 0 186.75 19.910156 186.75 44.46875 C 186.75 69.027344 166.820312 88.9375 142.238281 88.9375 C 117.664062 88.9375 97.738281 69.027344 97.738281 44.46875 C 97.738281 19.910156 117.664062 0 142.238281 0 Z M 142.238281 0 " fill-opacity="1" fill-rule="evenodd"/></g></svg>